<?xml version="1.0" standalone="no"?>
<!DOCTYPE svg PUBLIC "-//W3C//DTD SVG 20010904//EN"
 "http://www.w3.org/TR/2001/REC-SVG-20010904/DTD/svg10.dtd">
<svg version="1.0" xmlns="http://www.w3.org/2000/svg"
 width="512.000000pt" height="512.000000pt" viewBox="0 0 512.000000 512.000000"
 preserveAspectRatio="xMidYMid meet">
<metadata>
Created by potrace 1.14, written by Peter Selinger 2001-2017
</metadata>
<g transform="translate(0.000000,512.000000) scale(0.100000,-0.100000)"
fill="#000000" stroke="none">
<path d="M3475 5105 c-85 -15 -247 -75 -333 -122 -200 -109 -367 -283 -477
-499 -80 -155 -115 -292 -115 -446 0 -83 1 -89 23 -97 58 -21 260 20 377 78
121 60 189 109 286 205 215 214 328 467 341 764 7 151 17 139 -102 117z"/>
<path d="M3299 3865 c-81 -16 -185 -49 -349 -110 -69 -26 -156 -58 -195 -72
-118 -44 -219 -43 -335 2 -205 79 -257 98 -335 123 -146 48 -200 57 -345 56
-112 -1 -152 -6 -235 -28 -283 -74 -503 -211 -669 -415 -192 -237 -294 -489
-336 -826 -12 -93 -16 -422 -6 -472 3 -15 8 -55 11 -88 13 -135 63 -366 117
-540 117 -383 295 -725 547 -1050 221 -286 378 -407 566 -435 120 -18 198 -7
355 52 358 134 397 144 590 141 152 -1 224 -19 431 -103 196 -79 264 -94 404
-87 146 8 220 35 345 128 121 89 269 263 425 499 91 139 120 189 199 347 53
106 146 340 146 365 0 7 -33 31 -73 52 -209 113 -383 286 -484 481 -95 184
-138 443 -112 665 21 172 99 369 202 505 63 84 189 210 274 272 72 53 73 45
-21 155 -162 189 -395 319 -677 377 -112 23 -341 26 -440 6z"/>
</g>
</svg>
